<?xml version="1.0" encoding="UTF-8" standalone="no"?>
<!-- Created with Inkscape (http://www.inkscape.org/) -->

<svg
   width="1023.9999"
   height="1023.9999"
   viewBox="0 0 270.93331 270.93331"
   version="1.1"
   id="svg1"
   xml:space="preserve"
   inkscape:version="1.4.3 (0d15f75, 2025-12-25)"
   sodipodi:docname="drawing.svg"
   inkscape:export-filename="drawing.png"
   inkscape:export-xdpi="96"
   inkscape:export-ydpi="96"
   xmlns:inkscape="http://www.inkscape.org/namespaces/inkscape"
   xmlns:sodipodi="http://sodipodi.sourceforge.net/DTD/sodipodi-0.dtd"
   xmlns="http://www.w3.org/2000/svg"
   xmlns:svg="http://www.w3.org/2000/svg"><sodipodi:namedview
     id="namedview1"
     pagecolor="#ffffff"
     bordercolor="#000000"
     borderopacity="0.25"
     inkscape:showpageshadow="2"
     inkscape:pageopacity="0.0"
     inkscape:pagecheckerboard="0"
     inkscape:deskcolor="#d1d1d1"
     inkscape:document-units="mm"
     inkscape:zoom="0.50658674"
     inkscape:cx="181.6076"
     inkscape:cy="571.47173"
     inkscape:window-width="1920"
     inkscape:window-height="1022"
     inkscape:window-x="0"
     inkscape:window-y="30"
     inkscape:window-maximized="0"
     inkscape:current-layer="g2"><inkscape:page
       x="0"
       y="0"
       width="270.93332"
       height="270.93332"
       id="page2"
       margin="0"
       bleed="0" /></sodipodi:namedview><defs
     id="defs1" /><g
     inkscape:label="Layer 1"
     inkscape:groupmode="layer"
     id="layer1"><g
       id="g22"
       transform="translate(30.466667,-14.57781)"
       inkscape:label="logo"
       sodipodi:insensitive="true"><g
         style="display:inline"
         id="g2"
         transform="matrix(0.05638158,0,0,0.05638158,46.794175,209.57221)"
         inkscape:label="text"><g
           id="g5"
           transform="matrix(1.0151927,0,0,1.0151927,-25.939848,-11.061279)"
           inkscape:label=".health"><path
             fill="#6b6b60"
             fill-rule="evenodd"
             d="m 1616.38,773.268 c 39.21,-3.219 52,30.059 51.78,62.775 -23.41,0.462 -56.87,-1.032 -79.04,0.701 3.65,30.188 32.66,42.75 57.64,25.461 2.15,-2.021 7.43,-5.542 9.95,-2.136 11.05,15.177 -12.36,25.036 -24.49,26.973 -71.99,11.505 -82.74,-104.259 -15.84,-113.774 z m 3.84,15.965 c 15.09,0.13 24.41,10.207 30.35,23.246 1.74,3.827 1.03,5.981 -1.67,8.887 -4.47,1.285 -19.22,0.678 -24.65,0.613 -6.62,-0.029 -26.59,0.664 -31.94,-0.539 -3.12,-2.446 -2.36,-1.201 -3.56,-4.906 0.72,-9.12 14.34,-21.971 22.46,-25.209 2.39,-0.952 6.41,-1.664 9.01,-2.092 z"
             id="path7-6" /><path
             fill="#6b6b60"
             fill-rule="evenodd"
             d="m 1717.33,773.25 c 21.52,-2.025 45.35,6.825 48.75,29.107 3.73,24.414 1.96,57.953 1.91,82.804 -5.1,0.38 -11.5,1.675 -15.26,-1.49 -2.16,-2.917 -1.93,-6.866 -2.11,-10.558 -19.54,18.711 -46.14,22.065 -63.71,-1.603 -5.59,-9.767 -7.55,-26.097 0.06,-35.352 15.61,-18.992 41.56,-13.263 62.9,-15.911 0.28,-0.426 0.6,-0.847 0.65,-1.361 2.92,-28.927 -27.93,-35.515 -48.32,-22.728 -2.98,1.872 -5.37,3.981 -7.94,6.193 -4.5,-5.288 -5.55,-7.24 -8.43,-13.327 9.23,-9.025 18.98,-13.593 31.5,-15.774 z m -1.02,62.993 c 10.41,-0.606 24.33,-0.274 34.69,0.21 0.46,16.874 -2.29,24.364 -17.07,33.051 -33.86,10.273 -48.17,-26.153 -17.62,-33.261 z"
             id="path8-2" /><path
             fill="#6b6b60"
             d="m 1923.83,730.136 c 5.91,-0.189 11.83,0.207 17.74,0.5 -0.62,18.931 -0.35,38.893 -0.37,57.905 10.43,-7.925 19.01,-15.447 33.01,-15.559 10.54,-0.084 20.22,2.347 27.87,10.072 16.26,16.398 14.1,42.46 14.1,63.772 l -0.06,38.257 c -5.53,0.306 -11.46,0.212 -17.02,0.231 -0.18,-21.003 -0.25,-42.008 -0.22,-63.012 -1.18,-14.377 -4.49,-23.322 -17.13,-31.112 -2.9,-0.247 -5.8,-0.39 -8.71,-0.429 -42.01,-0.556 -31.87,65.504 -31.93,94.106 -5.77,0.458 -11.54,0.384 -17.33,0.399 -1.72,-47.696 -0.11,-106.658 0.05,-155.13"
             id="path10-0" /><path
             fill="#6b6b60"
             d="m 1457,730.046 17.01,0.232 v 58.04 c 18.99,-14.925 39.81,-24.34 61.36,-4.233 15.69,14.647 13.79,42.78 13.74,62.923 q -0.045,19.218 -0.39,38.433 c -5.48,0.134 -11.19,0.086 -16.69,0.119 -1.05,-20.368 -0.28,-43.928 -0.82,-64.883 -0.33,-28.358 -29.76,-39.773 -47.12,-22.348 -14.73,14.779 -10.16,64.579 -10.11,86.776 -6.26,0.536 -10.67,0.436 -16.94,0.277 z"
             id="path11-3" /><path
             fill="#6b6b60"
             d="m 1852.11,748.691 16.72,0.322 0.39,24.842 c 9.03,0.301 19.31,0.128 28.43,0.159 0.34,5.827 -0.08,11.017 -0.44,16.826 -9.42,-0.502 -18.61,-0.117 -28.03,0.154 -0.14,15.351 -0.43,30.807 -0.35,46.156 0.1,19.728 -0.01,41.324 26.59,29.92 3.2,1.45 2.86,2.175 5.14,5.654 8.2,25.348 -44.4,16.672 -47.11,-5.947 -2.97,-24.903 -1.6,-50.576 -1.75,-75.706 l -15.83,-0.698 -0.2,-16.198 16.03,-0.458 z"
             id="path14-1" /><path
             fill="#6b6b60"
             d="m 1798.48,730.129 17.54,0.013 -0.02,155.107 c -5.33,0.25 -12.03,-0.109 -17.49,-0.271 -1.59,-48.596 -0.23,-105.737 -0.03,-154.849"
             id="path15-7" /><path
             fill="#6b6b60"
             d="m 1951.97,568.627 c 24.84,-4.372 48.55,12.117 53.09,36.92 4.54,24.804 -11.78,48.625 -36.56,53.338 -25.01,4.76 -49.11,-11.76 -53.7,-36.806 -4.59,-25.046 12.1,-49.037 37.17,-53.452"
             id="path9-7"
             style="display:inline"
             transform="translate(-7.3901206e-6)" /><path
             fill="#6b6b60"
             d="m 1410.2,848.169 c 26.93,-2.965 34.06,24.11 12.2,38.646 -11.52,3.179 -16.1,-1.169 -23.23,-9.552 -1.05,-15.188 -2.6,-20.478 11.03,-29.094"
             id="path16-2" /></g><g
           id="g3"
           inkscape:label="balsm"
           style="display:inline"
           transform="translate(-7.3901206e-6)"><path
             fill="#6b6b60"
             fill-rule="evenodd"
             d="m 183.253,577.457 c 33.649,0.483 67.757,-0.605 101.47,-0.163 21.019,0.26 41.635,-0.855 62.39,2.902 41.152,7.45 69.928,34.045 71.644,77.202 1.181,29.707 -10.762,48.737 -30.219,69.839 14.317,13.439 31.313,26.262 36.24,46.395 6.361,25.994 7.111,54.147 -5.71,77.909 -28.754,47.018 -88.568,39.797 -136.396,39.863 -33.227,0.152 -66.454,0.116 -99.68,-0.109 -0.348,-12.892 -0.269,-26.516 -0.131,-39.434 0.974,-91.317 -1.281,-183.137 0.392,-274.404 z m 62.043,183.572 c 28.483,-0.513 65.167,-2.024 93.314,1.915 29.037,4.064 39.629,39.374 18.784,62.658 -19.423,15.915 -85.578,10.795 -112.259,10.291 -0.637,-23.622 -0.306,-51.171 0.161,-74.864 z m -0.051,-127.907 c 23.88,-0.52 47.716,-0.654 71.584,0.111 35.416,1.135 53.182,32.619 27.936,60.667 -18.941,13.549 -74.662,10.121 -98.921,9.86 -1.603,-16.307 -0.643,-52.797 -0.599,-70.638 z"
             id="path2-9" /><path
             fill="#6b6b60"
             fill-rule="evenodd"
             d="m 548.55,645.395 c 3.314,-0.178 6.632,-0.285 9.951,-0.323 27.249,-0.15 51.314,6.933 71.439,25.922 32.485,30.652 26.099,83.527 26.133,124.894 l 0.163,95.215 c -18.051,0.304 -36.106,0.324 -54.158,0.061 -0.149,-8.308 -0.66,-16.937 -1.035,-25.264 -20.204,21.87 -38.517,31.644 -69.141,29.887 -22.835,-1.309 -41.34,-9.154 -56.653,-26.346 a 75.34,75.34 0 0 1 -15.7,-45.134 c -0.376,-19.001 5.783,-38.072 19.381,-51.519 30.419,-30.08 76.245,-26.045 115.354,-26.751 -1.726,-64.643 -69.816,-47.316 -105.715,-22.904 -7.055,-15.361 -13.803,-29.968 -18.936,-46.093 22.226,-20.838 49.072,-29.252 78.917,-31.645 z m 17.242,143.031 c 9.995,-0.614 19.624,0.123 29.603,0.683 -0.092,33.158 -9.287,58.203 -48.172,58.019 -22.262,-1.23 -39.006,-25.494 -22.08,-44.26 10.941,-12.132 25.354,-13.464 40.649,-14.442 z"
             id="path3-8" /><path
             fill="#6b6b60"
             d="m 900.387,645.4 c 27.811,-2.693 65.106,5.259 87.6,22.384 -6.797,15.857 -12.576,32.38 -19.245,48.403 -18.164,-9.714 -31.046,-15.365 -52.68,-17.53 -15.565,-1.558 -42.496,1.435 -45.086,21.738 -0.902,18.759 29.906,22.545 42.379,24.949 23.077,4.449 47.336,9.891 63.922,27.276 14.662,15.367 15.465,33.085 15.036,52.878 -1.173,54.102 -56.528,72.223 -102.561,70.13 -26.208,-1.514 -61.48,-9.255 -81.095,-27.976 5.629,-16.39 12.196,-32.955 18.408,-49.171 26.503,16.292 47.347,26.558 79.394,24.396 12.911,-0.871 32.462,-8.611 29.768,-23.712 -4.375,-24.525 -50.922,-21.543 -69.596,-28.36 -13.235,-4.832 -22.949,-6.62 -33.691,-16.39 -27.623,-22.598 -26.233,-72.558 -3.699,-98.299 19.053,-21.764 42.888,-28.634 71.146,-30.716"
             id="path4-6" /><path
             fill="#6b6b60"
             d="m 711.806,561.285 c 19.576,0.305 39.427,-0.495 58.837,0.056 0.767,14.489 0.277,33.145 0.279,47.857 l 0.015,86.011 c 0.007,17.52 0.959,192.719 -1.169,196.103 -19.384,0.429 -38.777,0.394 -58.16,-0.103 l 0.025,-218.192 c -0.005,-35.888 -0.986,-76.302 0.173,-111.732"
             id="path5-5" /><path
             fill="#6b6b60"
             d="m 1138.04,646.319 c 36.1,-3.483 58.09,7.376 77.92,37.411 2.12,-2.261 4.27,-4.493 6.46,-6.695 20.39,-20.54 38.45,-31.358 68,-31.388 38.69,-0.04 68.87,25.325 77.16,62.793 6.13,27.684 4.5,56.44 4.52,84.608 l -0.16,98.063 c -19.26,0.665 -40.64,0.325 -59.95,0.196 -1.44,-35.081 1.04,-71.613 0.08,-106.833 -0.64,-23.33 2.28,-50.388 -14.48,-69.311 -12.96,-14.619 -37.29,-9.471 -49.91,2.919 -19.5,20.101 -17.4,55.135 -17.38,81.034 l 0.07,42.989 -0.07,49.167 c -19.66,0.285 -39.33,0.238 -58.99,-0.142 -0.99,-40.194 0.74,-80.895 0.03,-121.205 -0.46,-26.424 -3.39,-63.159 -38.52,-63.536 -24.13,-0.26 -36.22,21.024 -40.87,41.802 -3.9,19.736 -3.02,42.798 -3.02,63.204 l 0.09,79.736 c -17.98,0.625 -40.56,0.557 -58.43,-0.097 l -0.39,-240.999 c 18.32,-0.166 37.43,-0.612 55.68,-0.014 1.01,7.178 1.18,16.583 1.52,23.987 16.98,-16.196 26.78,-23.962 50.64,-27.689"
             id="path6-7" /></g><g
           id="g4"
           inkscape:label="بلسم"
           transform="matrix(17.736289,0,0,17.736289,-1370.3206,-3458.477)"><path
             fill="#6b6b60"
             d="m 2030.22,100.177 1.29,1.058 c 0.91,5.726 0.53,17.299 0.49,23.54 -5.37,2.677 -11.74,4.967 -17.39,7.118 -48.34,18.422 -97.37,35.347 -145.74,53.724 -0.49,-0.173 -1.2,-1.127 -1.62,-1.6 -0.57,-7.078 0.39,-15.379 1,-22.555 8.86,-4.887 24.87,-9.69 34.9,-13.894 25.98,-10.887 52.41,-20.684 78.94,-30.117 14.75,-5.242 33.15,-13.582 48.13,-17.274"
             id="path12-9"
             style="display:inline"
             transform="matrix(0.05638158,0,0,0.05638158,77.260842,194.9944)" /><path
             fill="#6b6b60"
             d="m 1205.59,101.126 c 2.49,3.71 0.9,20.109 0.52,25.36 -10.15,6.131 -45.24,18.126 -58.61,22.878 -33.3,11.836 -67.94,25.923 -101.27,36.78 -2.58,-3.44 -1.15,-17.042 -0.91,-22.296 3.96,-2.481 7.55,-4.054 11.84,-5.869 36.46,-15.434 73.27,-29.415 110.58,-42.641 12.6,-4.468 25.07,-10.271 37.85,-14.212"
             id="path13-99"
             style="display:inline"
             transform="matrix(0.05638158,0,0,0.05638158,77.260842,194.9944)" /><path
             fill="#6b6b60"
             fill-rule="evenodd"
             d="m 1731.9,70.1677 c 4.76,4.1162 -1.21,263.9233 1.76,292.2733 7.08,67.575 43.02,82.238 105.27,79.134 38.81,-1.935 74.52,2.396 98.08,-35.613 18.82,-33.41 14.2,-115.31 10.8,-153.759 10.5,-4.807 70.51,-23.43 81.19,-24.995 l -0.01,87.368 c -0.01,57.097 3.01,115.355 -39.67,161.127 -30.03,32.204 -79.72,40.561 -122.28,40.472 -44.48,-0.094 -98.56,3.04 -138.47,-19.893 -10.04,-5.77 -20.64,-16.346 -28.99,-24.434 -46.78,47.389 -102.35,44.896 -163.72,44.041 -36.09,-0.503 -74.74,2.113 -109.36,-9.748 -21.36,-7.323 -41.08,-22.955 -58.67,-36.702 -34.09,34.159 -55.63,43.057 -106.22,46.717 -31.22,2.258 -68.07,-5.593 -94.31,-23.103 -5.75,-3.838 -18.89,-16.657 -24.96,-22.263 -5.43,4.292 -10.35,10.675 -15.64,15.251 -37.77,32.679 -99.61,35.995 -146.223,24.628 -29.612,-7.222 -45.568,-19.267 -65.43,-40.188 -51.128,48.647 -89.679,45.391 -155.481,45.423 l -80.853,-0.013 -91.556,-0.016 c -37.151,-0.055 -73.948,1.158 -109.907,-9.271 -24.002,-6.961 -34.353,-20.102 -52.578,-34.913 -5.795,4.902 -11.567,11.314 -16.545,15.616 -41.614,35.965 -118,36.608 -167.831,19.674 -18.85,-6.446 -34.258,-18.527 -54.924,-18.654 -33.529,-0.205 -60.13,17.816 -66.875,51.515 -3.879,19.382 -2.652,38.572 -2.598,58.23 0.248,26.756 0.201,53.514 -0.141,80.27 -12.232,5.258 -69.1768,21.885 -83.1598,25.177 l 0.1695,-40.769 -0.0672,-64.118 c 0.0385,-13.879 -0.1717,-28.079 0.398,-41.881 2.2396,-54.257 24.4823,-113.112 82.0605,-128.618 10.961,-2.952 21.978,-4.699 32.915,-8.014 1.348,-12.974 0.416,-30.923 0.88,-44.299 1.356,-37.586 14.867,-73.719 38.506,-102.973 26.808,-33.534 60.326,-47.241 102.425,-53.062 72.122,-9.971 133.169,30.686 157.306,98.444 12.558,38.46 4.932,80.969 41.027,108.732 23.583,18.139 53.607,14.093 82.342,14.072 l 80.892,-0.013 94.58,0.073 c 20.598,0.024 41.21,0.609 61.719,-1.322 20.068,-1.89 36.362,-9.804 49.099,-25.776 17.048,-21.378 16.393,-49.578 16.224,-75.46 -0.076,-11.657 0.151,-23.536 -1.198,-35.208 8.298,-3.333 21.183,-6.561 30.11,-9.154 l 51.818,-15.177 c 0.459,17.916 0.157,37.864 0.056,55.997 -0.653,33.79 -0.941,63.505 24.019,89.514 26.721,27.849 74.991,23.929 101.441,-2.159 25.55,-25.184 22.76,-63.487 22.68,-96.603 l 0.01,-54.17 c 21.14,-5.649 56.81,-18.689 76.84,-20.06 l -0.65,25.192 c -0.16,16.876 -0.22,33.754 -0.2,50.631 -0.01,32.133 -2.59,71.936 21.36,97.16 24.73,26.515 80.33,24.319 105.17,-0.55 27.37,-27.392 22.8,-74.05 22.65,-109.794 l -0.09,-82.603 c 7.49,-3.118 20.39,-6.485 28.46,-8.82 l 48.46,-14.076 c 0.58,10.458 0.06,26.92 0.05,37.818 l -0.03,74.777 c 0.01,20.21 -1.1,38.988 3.5,58.827 10.27,44.256 44.68,62.982 88.23,60.948 35.77,-1.672 75.97,4.151 111.18,-4.303 20.91,-5.021 42.27,-34.118 46.31,-54.712 4.71,-29.781 2.63,-63.468 2.71,-93.939 l 0.01,-190.917 0.4,-0.2026 c 14.53,-7.1025 58.46,-21.2303 75.53,-26.7837 z M 297.151,291.321 c 0.394,-0.032 0.788,-0.061 1.182,-0.089 18.681,-1.371 37.115,4.92 51.06,17.424 45.718,40.21 32.476,131.227 -37.897,135.555 -103.102,3.734 -105.975,-140.299 -14.345,-152.89 z"
             id="path1-03"
             inkscape:label="بلسم"
             style="display:inline"
             transform="matrix(0.05638158,0,0,0.05638158,77.260842,194.9944)" /></g></g><g
         id="g1"
         transform="matrix(0.26458333,0,0,0.26458333,12.394634,28.893016)"
         inkscape:label="icon"><path
           d="m 451.80518,159.04954 c 0.71667,30.88309 -8.20398,58.20377 -26.11499,82.69324 -25.25928,34.53674 -50.46729,69.11093 -75.94373,104.00668 -0.65643,-0.78058 -1.61401,-1.78595 -2.42233,-2.89972 -23.96298,-33.01697 -47.85528,-66.08542 -71.87952,-99.05771 -18.73278,-25.70999 -29.34878,-54.03579 -27.66491,-86.1911 1.49042,-28.46109 11.36957,-54.13971 26.52933,-78.08249 19.14752,-30.2409 44.0809,-54.98806 71.9096,-77.07618 1.15024,-0.91298 2.50427,-1.56925 3.92102,-2.44226 23.98938,18.2172 45.79834,38.4172 63.76557,62.50413 13.31128,17.84515 24.90753,36.79788 30.91406,58.37656 3.41138,12.25546 4.71124,25.09869 6.9859,38.16885 z"
           fill="#01c4a2"
           id="path1" /><path
           d="m 580.16035,400.31783 c -29.1501,10.22499 -57.89025,10.1835 -86.71592,0.71678 -40.65194,-13.35056 -81.32365,-26.64079 -122.38414,-40.08695 0.53953,-0.86551 1.19979,-2.0869 2.00926,-3.19983 23.99604,-32.99295 48.06287,-65.93459 71.99749,-98.972 18.6629,-25.76076 42.32182,-44.61033 73.42368,-52.94541 27.52867,-7.37749 55.00331,-5.91699 82.45887,1.10208 34.67772,8.86542 65.9185,24.93118 95.52509,44.57224 1.22374,0.81182 2.26631,1.89678 3.53439,2.97441 -9.91246,28.44468 -22.38446,55.42838 -39.74031,79.9595 -12.85834,18.17423 -27.30002,35.05964 -45.96644,47.44037 -10.60146,7.03156 -22.41442,12.23658 -34.14197,18.43881 z"
           fill="#1283ff"
           id="path2" /><path
           d="m 390.3645,596.94685 c -18.73242,-24.5637 -27.57416,-51.91002 -27.4784,-82.25024 0.135,-42.78785 0.20651,-85.57585 0.30618,-128.78178 0.98988,0.24566 2.35552,0.49617 3.66412,0.92211 38.79334,12.6262 77.55977,25.3356 116.37641,37.88965 30.26709,9.78897 55.50511,26.46509 73.04324,53.46904 15.52324,23.90155 22.62435,50.48281 24.43306,78.76361 2.28448,35.72003 -3.34103,70.39638 -12.87185,104.62334 -0.39392,1.41471 -1.10361,2.74152 -1.73664,4.28055 -30.11562,-0.63742 -59.6327,-4.16058 -88.32644,-13.08644 -21.25817,-6.61286 -41.77987,-15.12983 -59.32288,-29.0568 -9.96344,-7.90972 -18.56411,-17.53607 -28.0868,-26.77304 z"
           fill="#55d77f"
           id="path3" /><path
           d="m 144.70905,477.20198 c 17.57282,-25.4062 40.84847,-42.26566 69.73333,-51.55023 40.73538,-13.09378 81.45128,-26.24799 122.57337,-39.50457 0.0722,1.01734 0.256,2.39355 0.25529,3.76973 -0.0204,40.79638 -0.1283,81.59286 -0.0729,122.38909 0.0432,31.81068 -8.01778,60.96666 -28.28047,85.9911 -17.93479,22.14946 -41.0207,37.11708 -67.35842,47.57651 -33.26582,13.21077 -67.98337,18.57617 -103.48033,20.08854 -1.4672,0.0625 -2.94838,-0.20243 -4.6077,-0.32889 -8.70001,-28.83863 -14.47057,-57.99976 -14.84842,-88.04737 -0.27994,-22.2612 1.47864,-44.41039 9.30288,-65.39846 4.44372,-11.92003 10.94117,-23.07446 16.78338,-34.98545 z"
           fill="#724dd0"
           id="path4" /><path
           d="m 182.68147,206.56656 c 29.59303,8.8618 52.81991,25.7884 70.57597,50.39045 25.04085,34.69544 50.13315,69.35369 75.44833,104.36661 -0.94522,0.38309 -2.19729,0.98312 -3.50634,1.40771 -38.80597,12.58734 -77.63906,25.09155 -116.42147,37.75097 -30.2404,9.87111 -60.46036,11.21437 -90.52154,-0.32363 C 91.648883,389.94624 70.279893,372.61548 52.193583,350.79897 29.349683,323.24364 13.518573,291.88329 1.111063,258.59102 0.598213,257.21495 0.392483,255.7244 2.9999999e-6,254.10721 24.738713,236.92138 50.689393,222.42197 79.149603,212.77739 c 21.085157,-7.14532 42.693717,-12.3173 65.072377,-11.36167 12.70981,0.54273 25.32613,3.27527 38.45949,5.15084 z"
           fill="#02bbb5"
           id="path5" /></g></g></g></svg>
